<svg width="265" height="77" viewBox="0 0 265 77" fill="none" xmlns="http://www.w3.org/2000/svg">
<path d="M5.4375 13.1875H18.3125L29.5625 39.0625H29.8125L41.0938 13.1875H53.9375V58H46.0312V21.6562H45.6875L34.5 46.5938H24.9062L13.6875 21.6562H13.375V58H5.4375V13.1875ZM76 20.25H60.3438V13.1875H99.625V20.25H83.9375V58H76V20.25ZM108.969 52.2812C104.844 48.0521 102.781 42.4896 102.781 35.5938C102.781 28.6562 104.844 23.0833 108.969 18.875C113.052 14.6667 118.583 12.5625 125.562 12.5625C128.562 12.5625 131.365 13 133.969 13.875C136.51 14.7292 138.625 15.8438 140.312 17.2188C141.938 18.5729 143.354 20.1042 144.562 21.8125C146.708 24.8958 147.781 27.9375 147.781 30.9375H139.469C139.531 30.3125 139.167 29.1979 138.375 27.5938C137.604 25.9896 136.542 24.5312 135.188 23.2188C134.125 22.1979 132.74 21.3646 131.031 20.7188C129.344 20.0521 127.521 19.7188 125.562 19.7188C121.125 19.7188 117.604 21.2083 115 24.1875C112.396 27.2083 111.094 31.0104 111.094 35.5938C111.094 40.1979 112.396 43.9896 115 46.9688C117.583 49.9688 121.104 51.4688 125.562 51.4688C127.521 51.4688 129.344 51.1458 131.031 50.5C132.74 49.8333 134.125 48.9896 135.188 47.9688C136.188 46.9688 137.021 45.9375 137.688 44.875C138.875 42.9167 139.469 41.3854 139.469 40.2812H147.781C147.781 43.2812 146.708 46.3125 144.562 49.375C143.354 51.0833 141.938 52.6146 140.312 53.9688C138.625 55.3646 136.521 56.4792 134 57.3125C131.417 58.1875 128.604 58.625 125.562 58.625C118.604 58.625 113.073 56.5104 108.969 52.2812Z" fill="#FF0000"/>
<path d="M159.672 29.5938C158.609 28.5078 158.078 26.9766 158.078 25C158.078 23.0312 158.613 21.5 159.684 20.4062C160.754 19.3125 162.082 18.7656 163.668 18.7656C164.793 18.7656 165.707 18.9414 166.41 19.293C166.926 19.5508 167.34 19.8359 167.652 20.1484L167.805 20.3242H167.969V14.1953H172.141V31H167.969V28.9375H167.781C167.68 29.1562 167.492 29.4219 167.219 29.7344C167 29.9844 166.742 30.2148 166.445 30.4258C166.133 30.6445 165.727 30.8359 165.227 31C164.727 31.1562 164.207 31.2344 163.668 31.2344C162.074 31.2344 160.742 30.6875 159.672 29.5938ZM163.117 23.125C162.609 23.6094 162.355 24.2344 162.355 25C162.355 25.7578 162.609 26.3789 163.117 26.8633C163.625 27.3477 164.305 27.5898 165.156 27.5898C166.031 27.5898 166.723 27.3477 167.23 26.8633C167.723 26.3867 167.969 25.7656 167.969 25C167.969 24.2031 167.715 23.5742 167.207 23.1133C166.707 22.6445 166.027 22.4102 165.168 22.4102C164.301 22.4102 163.617 22.6484 163.117 23.125ZM183.812 18.7656L184.844 18.8828V23.4648C184.359 23.1758 183.617 23.0312 182.617 23.0312C181.586 23.0312 180.797 23.293 180.25 23.8164C179.711 24.3398 179.441 25.0547 179.441 25.9609V31H175.27V19H179.441V21.0859H179.664C179.773 20.8438 179.957 20.5742 180.215 20.2773C180.434 20.0273 180.688 19.793 180.977 19.5742C181.273 19.3555 181.68 19.168 182.195 19.0117C182.711 18.8477 183.25 18.7656 183.812 18.7656ZM200.43 25L200.359 25.8203H190.762C190.777 26.6172 191.008 27.2422 191.453 27.6953C191.898 28.1406 192.562 28.3633 193.445 28.3633C193.961 28.3633 194.406 28.2578 194.781 28.0469C195.164 27.8359 195.406 27.6367 195.508 27.4492L195.684 27.1328H200.148C200.148 27.2734 200.07 27.543 199.914 27.9414C199.656 28.5586 199.25 29.1172 198.695 29.6172C197.938 30.2969 196.965 30.7617 195.777 31.0117C195.09 31.1602 194.312 31.2344 193.445 31.2344C191.328 31.2344 189.621 30.6992 188.324 29.6289C187.035 28.5586 186.391 27.0156 186.391 25C186.391 23 187.031 21.4609 188.312 20.3828C189.594 19.3047 191.297 18.7656 193.422 18.7656C195.516 18.7656 197.207 19.3047 198.496 20.3828C199.785 21.4609 200.43 23 200.43 25ZM193.422 21.6367C192.633 21.6367 192.008 21.8438 191.547 22.2578C191.086 22.6797 190.855 23.1523 190.855 23.6758H195.918C195.918 23.1602 195.699 22.6914 195.262 22.2695C194.816 21.8477 194.203 21.6367 193.422 21.6367ZM202.586 27.5664C202.586 26.3086 203.082 25.3828 204.074 24.7891C205.066 24.1953 206.348 23.8984 207.918 23.8984C208.723 23.8984 209.438 23.9688 210.062 24.1094C210.68 24.2578 211.094 24.4102 211.305 24.5664L211.609 24.7891V23.125C211.609 22.1328 210.922 21.6367 209.547 21.6367C208.883 21.6367 208.371 21.7578 208.012 22C207.66 22.2422 207.484 22.5703 207.484 22.9844H203.207C203.207 21.5938 203.773 20.543 204.906 19.832C206.023 19.1211 207.586 18.7656 209.594 18.7656C213.719 18.7656 215.785 20.2188 215.793 23.125V26.5352C215.793 26.9492 215.844 27.2383 215.945 27.4023C216.047 27.5586 216.219 27.6367 216.461 27.6367L216.895 27.5664V31C216.566 31.1562 215.996 31.2344 215.184 31.2344C214.738 31.2344 214.316 31.1758 213.918 31.0586C213.527 30.9414 213.219 30.793 212.992 30.6133C212.562 30.2617 212.27 29.9258 212.113 29.6055L212.043 29.4414H211.855C211.871 29.4648 211.84 29.5352 211.762 29.6523C211.691 29.7695 211.547 29.9219 211.328 30.1094C211.117 30.2969 210.871 30.4688 210.59 30.625C209.879 31.0312 208.836 31.2344 207.461 31.2344C206.055 31.2344 204.891 30.9258 203.969 30.3086C203.047 29.6992 202.586 28.7852 202.586 27.5664ZM209.195 28.3633C210.742 28.3633 211.516 28.0352 211.516 27.3789C211.516 26.7227 210.742 26.3945 209.195 26.3945C207.641 26.3945 206.863 26.7227 206.863 27.3789C206.863 28.0352 207.641 28.3633 209.195 28.3633Z" fill="white"/>
<path d="M188.078 49.5664C188.078 48.3086 188.574 47.3828 189.566 46.7891C190.559 46.1953 191.84 45.8984 193.41 45.8984C194.215 45.8984 194.93 45.9688 195.555 46.1094C196.172 46.2578 196.586 46.4102 196.797 46.5664L197.102 46.7891V45.125C197.102 44.1328 196.414 43.6367 195.039 43.6367C194.375 43.6367 193.863 43.7578 193.504 44C193.152 44.2422 192.977 44.5703 192.977 44.9844H188.699C188.699 43.5938 189.266 42.543 190.398 41.832C191.516 41.1211 193.078 40.7656 195.086 40.7656C199.211 40.7656 201.277 42.2188 201.285 45.125V48.5352C201.285 48.9492 201.336 49.2383 201.438 49.4023C201.539 49.5586 201.711 49.6367 201.953 49.6367L202.387 49.5664V53C202.059 53.1562 201.488 53.2344 200.676 53.2344C200.23 53.2344 199.809 53.1758 199.41 53.0586C199.02 52.9414 198.711 52.793 198.484 52.6133C198.055 52.2617 197.762 51.9258 197.605 51.6055L197.535 51.4414H197.348C197.363 51.4648 197.332 51.5352 197.254 51.6523C197.184 51.7695 197.039 51.9219 196.82 52.1094C196.609 52.2969 196.363 52.4688 196.082 52.625C195.371 53.0312 194.328 53.2344 192.953 53.2344C191.547 53.2344 190.383 52.9258 189.461 52.3086C188.539 51.6992 188.078 50.7852 188.078 49.5664ZM194.688 50.3633C196.234 50.3633 197.008 50.0352 197.008 49.3789C197.008 48.7227 196.234 48.3945 194.688 48.3945C193.133 48.3945 192.355 48.7227 192.355 49.3789C192.355 50.0352 193.133 50.3633 194.688 50.3633ZM217.129 42.4062C218.191 43.4922 218.723 45.0234 218.723 47C218.723 48.9766 218.191 50.5078 217.129 51.5938C216.059 52.6875 214.727 53.2344 213.133 53.2344C212.008 53.2344 211.098 53.0547 210.402 52.6953C209.855 52.4219 209.438 52.1406 209.148 51.8516L209.008 51.6758H208.832V57.8047H204.66V41H208.832V43.0625H209.031C209.141 42.8203 209.328 42.5508 209.594 42.2539C209.836 41.9883 210.094 41.7578 210.367 41.5625C210.672 41.3438 211.07 41.1562 211.562 41C212.062 40.8438 212.586 40.7656 213.133 40.7656C214.727 40.7656 216.059 41.3125 217.129 42.4062ZM213.707 48.8633C214.207 48.3867 214.457 47.7656 214.457 47C214.457 46.2266 214.207 45.6016 213.707 45.125C213.207 44.6484 212.52 44.4102 211.645 44.4102C210.754 44.4102 210.066 44.6484 209.582 45.125C209.082 45.6016 208.832 46.2266 208.832 47C208.832 47.7969 209.082 48.4297 209.582 48.8984C210.09 49.3594 210.777 49.5898 211.645 49.5898C212.512 49.5898 213.199 49.3477 213.707 48.8633ZM233.84 42.4062C234.902 43.4922 235.434 45.0234 235.434 47C235.434 48.9766 234.902 50.5078 233.84 51.5938C232.77 52.6875 231.438 53.2344 229.844 53.2344C228.719 53.2344 227.809 53.0547 227.113 52.6953C226.566 52.4219 226.148 52.1406 225.859 51.8516L225.719 51.6758H225.543V57.8047H221.371V41H225.543V43.0625H225.742C225.852 42.8203 226.039 42.5508 226.305 42.2539C226.547 41.9883 226.805 41.7578 227.078 41.5625C227.383 41.3438 227.781 41.1562 228.273 41C228.773 40.8438 229.297 40.7656 229.844 40.7656C231.438 40.7656 232.77 41.3125 233.84 42.4062ZM230.418 48.8633C230.918 48.3867 231.168 47.7656 231.168 47C231.168 46.2266 230.918 45.6016 230.418 45.125C229.918 44.6484 229.23 44.4102 228.355 44.4102C227.465 44.4102 226.777 44.6484 226.293 45.125C225.793 45.6016 225.543 46.2266 225.543 47C225.543 47.7969 225.793 48.4297 226.293 48.8984C226.801 49.3594 227.488 49.5898 228.355 49.5898C229.223 49.5898 229.91 49.3477 230.418 48.8633ZM251.641 47L251.57 47.8203H241.973C241.988 48.6172 242.219 49.2422 242.664 49.6953C243.109 50.1406 243.773 50.3633 244.656 50.3633C245.172 50.3633 245.617 50.2578 245.992 50.0469C246.375 49.8359 246.617 49.6367 246.719 49.4492L246.895 49.1328H251.359C251.359 49.2734 251.281 49.543 251.125 49.9414C250.867 50.5586 250.461 51.1172 249.906 51.6172C249.148 52.2969 248.176 52.7617 246.988 53.0117C246.301 53.1602 245.523 53.2344 244.656 53.2344C242.539 53.2344 240.832 52.6992 239.535 51.6289C238.246 50.5586 237.602 49.0156 237.602 47C237.602 45 238.242 43.4609 239.523 42.3828C240.805 41.3047 242.508 40.7656 244.633 40.7656C246.727 40.7656 248.418 41.3047 249.707 42.3828C250.996 43.4609 251.641 45 251.641 47ZM244.633 43.6367C243.844 43.6367 243.219 43.8438 242.758 44.2578C242.297 44.6797 242.066 45.1523 242.066 45.6758H247.129C247.129 45.1602 246.91 44.6914 246.473 44.2695C246.027 43.8477 245.414 43.6367 244.633 43.6367ZM262.82 40.7656L263.852 40.8828V45.4648C263.367 45.1758 262.625 45.0312 261.625 45.0312C260.594 45.0312 259.805 45.293 259.258 45.8164C258.719 46.3398 258.449 47.0547 258.449 47.9609V53H254.277V41H258.449V43.0859H258.672C258.781 42.8438 258.965 42.5742 259.223 42.2773C259.441 42.0273 259.695 41.793 259.984 41.5742C260.281 41.3555 260.688 41.168 261.203 41.0117C261.719 40.8477 262.258 40.7656 262.82 40.7656Z" fill="white"/>
<path d="M221 31C224.5 26.6393 228 15.0108 229.4 28.8197C229.913 33.8792 236.4 18.6447 237.8 20.0983C239.2 21.5518 238.5 29.5464 240.6 29.5464C242.28 29.5464 248.3 23.7322 249 22.2786" stroke="white" stroke-width="2"/>
<path d="M157 54C160.5 49.6393 164 38.0108 165.4 51.8197C165.913 56.8792 172.4 41.6447 173.8 43.0983C175.2 44.5518 174.5 52.5464 176.6 52.5464C178.28 52.5464 184.3 46.7322 185 45.2786" stroke="white" stroke-width="2"/>
</svg>
